<?xml version="1.0" encoding="UTF-8"?>
<svg xmlns="http://www.w3.org/2000/svg" id="Layer_1" data-name="Layer 1" viewBox="0 0 24 24">
  <path d="M7,0h-3C1.794,0,0,1.794,0,4v3c0,2.206,1.794,4,4,4h3c2.206,0,4-1.794,4-4v-3C11,1.794,9.206,0,7,0Zm3,7c0,1.654-1.346,3-3,3h-3c-1.654,0-3-1.346-3-3v-3c0-1.654,1.346-3,3-3h3c1.654,0,3,1.346,3,3v3ZM20,0h-3c-2.206,0-4,1.794-4,4v3c0,2.206,1.794,4,4,4h3c2.206,0,4-1.794,4-4v-3c0-2.206-1.794-4-4-4Zm3,7c0,1.654-1.346,3-3,3h-3c-1.654,0-3-1.346-3-3v-3c0-1.654,1.346-3,3-3h3c1.654,0,3,1.346,3,3v3ZM7,13h-3c-2.206,0-4,1.794-4,4v3c0,2.206,1.794,4,4,4h3c2.206,0,4-1.794,4-4v-3c0-2.206-1.794-4-4-4Zm3,7c0,1.654-1.346,3-3,3h-3c-1.654,0-3-1.346-3-3v-3c0-1.654,1.346-3,3-3h3c1.654,0,3,1.346,3,3v3Zm10-7h-3c-2.206,0-4,1.794-4,4v3c0,2.206,1.794,4,4,4h3c2.206,0,4-1.794,4-4v-3c0-2.206-1.794-4-4-4Zm3,7c0,1.654-1.346,3-3,3h-3c-1.654,0-3-1.346-3-3v-3c0-1.654,1.346-3,3-3h3c1.654,0,3,1.346,3,3v3Z"/>
</svg>
